<?xml version="1.0" encoding="UTF-8" standalone="no"?>
<!-- Uploaded to: SVG Repo, www.svgrepo.com, Generator: SVG Repo Mixer Tools -->

<svg
   width="1653.0367"
   height="226.54048"
   viewBox="0 -189.93 1115.5022 152.87405"
   version="1.1"
   id="svg12"
   sodipodi:docname="appDownload.svg"
   inkscape:version="1.3.2 (091e20e, 2023-11-25)"
   xml:space="preserve"
   xmlns:inkscape="http://www.inkscape.org/namespaces/inkscape"
   xmlns:sodipodi="http://sodipodi.sourceforge.net/DTD/sodipodi-0.dtd"
   xmlns="http://www.w3.org/2000/svg"
   xmlns:svg="http://www.w3.org/2000/svg"><defs
     id="defs12"><filter
       id="Adobe_OpacityMaskFilter"
       filterUnits="userSpaceOnUse"
       x="0"
       y="0.1"
       width="234"
       height="257"><feColorMatrix
         values="1 0 0 0 0 0 1 0 0 0 0 0 1 0 0 0 0 0 1 0"
         id="feColorMatrix4" /></filter><filter
       id="Adobe_OpacityMaskFilter_1_"
       filterUnits="userSpaceOnUse"
       x="-3"
       y="-127.4"
       width="234"
       height="257"><feColorMatrix
         values="1 0 0 0 0 0 1 0 0 0 0 0 1 0 0 0 0 0 1 0"
         id="feColorMatrix5" /></filter><filter
       id="Adobe_OpacityMaskFilter_2_"
       filterUnits="userSpaceOnUse"
       x="-5"
       y="0.1"
       width="234"
       height="257"><feColorMatrix
         values="1 0 0 0 0 0 1 0 0 0 0 0 1 0 0 0 0 0 1 0"
         id="feColorMatrix8" /></filter><linearGradient
       id="a"
       gradientUnits="userSpaceOnUse"
       x1="-23.235001"
       y1="97.431"
       x2="-23.235001"
       y2="61.386002"
       gradientTransform="matrix(16.017445,0,0,16.008801,768.21461,-1399.3287)"><stop
         offset="0"
         stop-color="#1a1a1a"
         stop-opacity=".1"
         id="stop4" /><stop
         offset=".123"
         stop-color="#212121"
         stop-opacity=".151"
         id="stop5" /><stop
         offset=".308"
         stop-color="#353535"
         stop-opacity=".227"
         id="stop6" /><stop
         offset=".532"
         stop-color="#575757"
         stop-opacity=".318"
         id="stop7" /><stop
         offset=".783"
         stop-color="#858585"
         stop-opacity=".421"
         id="stop8" /><stop
         offset="1"
         stop-color="#b3b3b3"
         stop-opacity=".51"
         id="stop9" /></linearGradient><linearGradient
       id="linearGradient20"
       gradientUnits="userSpaceOnUse"
       x1="-23.235001"
       y1="97.431"
       x2="-23.235001"
       y2="61.386002"
       gradientTransform="matrix(4.0022,0,0,4.0011,191.95,-349.736)"><stop
         offset="0"
         stop-color="#1a1a1a"
         stop-opacity=".1"
         id="stop15" /><stop
         offset=".123"
         stop-color="#212121"
         stop-opacity=".151"
         id="stop16" /><stop
         offset=".308"
         stop-color="#353535"
         stop-opacity=".227"
         id="stop17" /><stop
         offset=".532"
         stop-color="#575757"
         stop-opacity=".318"
         id="stop18" /><stop
         offset=".783"
         stop-color="#858585"
         stop-opacity=".421"
         id="stop19" /><stop
         offset="1"
         stop-color="#b3b3b3"
         stop-opacity=".51"
         id="stop20" /></linearGradient><linearGradient
       id="orange_1_"
       gradientUnits="userSpaceOnUse"
       x1="-70.717003"
       y1="570.71399"
       x2="-70.398003"
       y2="570.20099"
       gradientTransform="matrix(73.985356,0,0,-81.076802,5888.3468,46368.279)"><stop
         offset="0"
         stop-color="#ff177b"
         id="stop1" /><stop
         offset="1"
         stop-color="#ffec73"
         id="stop2" /></linearGradient></defs><sodipodi:namedview
     id="namedview12"
     pagecolor="#ffffff"
     bordercolor="#cccccc"
     borderopacity="1"
     inkscape:showpageshadow="0"
     inkscape:pageopacity="1"
     inkscape:pagecheckerboard="0"
     inkscape:deskcolor="#d1d1d1"
     inkscape:zoom="0.37234092"
     inkscape:cx="494.17077"
     inkscape:cy="96.685585"
     inkscape:window-width="1440"
     inkscape:window-height="847"
     inkscape:window-x="0"
     inkscape:window-y="25"
     inkscape:window-maximized="1"
     inkscape:current-layer="svg12" /><g
     id="g107"
     transform="translate(-99.68042,-7.249493)"><g
       id="g106"
       transform="translate(96.118498,-186.24148)"><path
         d="m 536.41751,141.11079 a 15.328273,15.324213 0 0 1 -15.34428,15.32422 H 18.926215 A 15.348284,15.344219 0 0 1 3.5619224,141.11079 V 18.905197 A 15.368294,15.364224 0 0 1 18.926215,3.560979 H 521.06923 a 15.344281,15.340217 0 0 1 15.34428,15.344218 z"
         id="path3"
         style="fill:#000000;fill-opacity:1;stroke-width:4.00163" /><g
         id="g104"
         transform="translate(-0.05522902)"><path
           fill="#ffffff"
           d="m 120.57708,79.157762 c -0.11607,-12.895545 10.5617,-19.16927 11.04996,-19.46135 -6.04726,-8.814423 -15.42032,-10.018754 -18.7141,-10.114781 -7.87225,-0.828228 -15.50837,4.709295 -19.518534,4.709295 -4.090208,0 -10.265541,-4.629273 -16.921133,-4.493235 -8.564622,0.132036 -16.576946,5.089399 -20.971318,12.787515 -9.068895,15.696315 -2.305244,38.762654 6.383445,51.450144 4.346346,6.21771 9.425087,13.15162 16.072675,12.90755 6.50351,-0.26407 8.932821,-4.14114 16.781057,-4.14114 7.776198,0 10.057428,4.14114 16.837088,3.9851 6.97977,-0.10803 11.37414,-6.24172 15.5684,-12.51144 5.02271,-7.11796 7.0398,-14.13589 7.11984,-14.495988 -0.16008,-0.05602 -13.55131,-5.169421 -13.68738,-20.62167 z M 107.77016,41.235337 c 3.49789,-4.373203 5.89118,-10.322838 5.22683,-16.360498 -5.06274,0.224061 -11.39415,3.500962 -15.040122,7.778138 -3.225741,3.769036 -6.107296,9.946735 -5.362894,15.756332 5.687069,0.424116 11.526216,-2.868789 15.176186,-7.173972 z"
           id="path4"
           style="stroke-width:4.00163" /><g
           fill="#ffffff"
           id="g10"
           transform="scale(4.00216,4.0011)"><path
             d="M 53.665,31.504 H 51.394 L 50.15,27.595 h -4.324 l -1.185,3.909 H 42.43 l 4.285,-13.308 h 2.646 z M 49.775,25.955 48.65,22.48 c -0.119,-0.355 -0.343,-1.191 -0.671,-2.507 h -0.04 c -0.132,0.566 -0.343,1.402 -0.632,2.507 l -1.106,3.475 z m 14.888,0.633 c 0,1.632 -0.443,2.922 -1.33,3.869 -0.794,0.843 -1.781,1.264 -2.958,1.264 -1.271,0 -2.185,-0.453 -2.74,-1.361 v 5.035 H 55.503 V 25.062 c 0,-1.025 -0.027,-2.076 -0.079,-3.154 h 1.875 l 0.119,1.521 h 0.04 c 0.711,-1.146 1.79,-1.719 3.238,-1.719 1.132,0 2.077,0.447 2.833,1.342 0.755,0.897 1.134,2.075 1.134,3.536 z m -2.172,0.078 c 0,-0.934 -0.21,-1.704 -0.632,-2.311 -0.461,-0.631 -1.08,-0.947 -1.856,-0.947 -0.526,0 -1.004,0.176 -1.431,0.523 -0.428,0.35 -0.708,0.807 -0.839,1.373 a 2.784,2.784 0 0 0 -0.099,0.649 v 1.601 c 0,0.697 0.214,1.286 0.642,1.768 0.428,0.48 0.984,0.721 1.668,0.721 0.803,0 1.428,-0.311 1.875,-0.928 0.448,-0.619 0.672,-1.435 0.672,-2.449 z M 75.7,26.588 c 0,1.632 -0.443,2.922 -1.33,3.869 -0.795,0.843 -1.781,1.264 -2.959,1.264 -1.271,0 -2.185,-0.453 -2.74,-1.361 v 5.035 H 66.539 V 25.062 c 0,-1.025 -0.027,-2.076 -0.079,-3.154 h 1.875 l 0.119,1.521 h 0.04 c 0.71,-1.146 1.789,-1.719 3.238,-1.719 1.131,0 2.076,0.447 2.834,1.342 0.754,0.897 1.134,2.075 1.134,3.536 z m -2.173,0.078 c 0,-0.934 -0.211,-1.704 -0.633,-2.311 -0.461,-0.631 -1.078,-0.947 -1.854,-0.947 -0.526,0 -1.004,0.176 -1.433,0.523 -0.428,0.35 -0.707,0.807 -0.838,1.373 -0.065,0.264 -0.1,0.479 -0.1,0.649 v 1.601 c 0,0.697 0.215,1.286 0.641,1.768 0.428,0.479 0.984,0.721 1.67,0.721 0.804,0 1.429,-0.311 1.875,-0.928 0.448,-0.619 0.672,-1.435 0.672,-2.449 z m 14.513,1.105 c 0,1.133 -0.396,2.054 -1.183,2.765 -0.866,0.776 -2.075,1.165 -3.625,1.165 -1.432,0 -2.58,-0.276 -3.446,-0.829 l 0.493,-1.777 c 0.935,0.554 1.962,0.83 3.08,0.83 0.804,0 1.429,-0.182 1.875,-0.543 0.447,-0.362 0.673,-0.846 0.673,-1.45 0,-0.541 -0.187,-0.994 -0.554,-1.363 -0.369,-0.368 -0.979,-0.711 -1.836,-1.026 -2.33,-0.869 -3.496,-2.14 -3.496,-3.812 0,-1.092 0.412,-1.986 1.234,-2.685 0.822,-0.698 1.912,-1.047 3.268,-1.047 1.211,0 2.22,0.211 3.021,0.632 l -0.535,1.738 c -0.754,-0.408 -1.605,-0.612 -2.557,-0.612 -0.752,0 -1.342,0.185 -1.764,0.553 -0.355,0.329 -0.535,0.73 -0.535,1.206 0,0.525 0.205,0.961 0.613,1.303 0.354,0.315 1,0.658 1.934,1.026 1.146,0.462 1.988,1 2.527,1.618 0.543,0.618 0.813,1.389 0.813,2.308 z m 7.067,-4.263 h -2.35 v 4.659 c 0,1.185 0.414,1.776 1.244,1.776 0.381,0 0.697,-0.032 0.947,-0.099 l 0.059,1.619 c -0.42,0.157 -0.973,0.236 -1.658,0.236 -0.842,0 -1.5,-0.257 -1.975,-0.771 -0.473,-0.514 -0.711,-1.375 -0.711,-2.587 v -4.837 h -1.4 v -1.6 h 1.4 v -1.757 l 2.094,-0.632 v 2.389 h 2.35 z m 10.582,3.119 c 0,1.475 -0.422,2.686 -1.264,3.633 -0.881,0.975 -2.053,1.461 -3.514,1.461 -1.41,0 -2.531,-0.467 -3.367,-1.4 -0.836,-0.935 -1.254,-2.113 -1.254,-3.534 0,-1.487 0.432,-2.705 1.293,-3.652 0.863,-0.948 2.025,-1.422 3.486,-1.422 1.408,0 2.539,0.468 3.395,1.402 0.818,0.906 1.225,2.076 1.225,3.512 z m -2.21,0.049 c 0,-0.879 -0.19,-1.633 -0.571,-2.264 -0.447,-0.762 -1.087,-1.143 -1.916,-1.143 -0.854,0 -1.509,0.381 -1.955,1.143 -0.382,0.631 -0.572,1.398 -0.572,2.304 0,0.88 0.19,1.636 0.572,2.265 0.461,0.762 1.104,1.143 1.937,1.143 0.815,0 1.454,-0.389 1.916,-1.162 0.392,-0.646 0.589,-1.405 0.589,-2.286 z m 9.143,-2.893 a 3.71,3.71 0 0 0 -0.672,-0.059 c -0.75,0 -1.33,0.282 -1.738,0.85 -0.354,0.5 -0.532,1.132 -0.532,1.895 v 5.035 h -2.132 V 24.93 a 67.43,67.43 0 0 0 -0.062,-3.021 h 1.857 l 0.078,1.836 h 0.059 c 0.226,-0.631 0.58,-1.14 1.066,-1.521 a 2.578,2.578 0 0 1 1.541,-0.514 c 0.197,0 0.375,0.014 0.533,0.039 z m 9.535,2.469 a 5,5 0 0 1 -0.078,0.967 h -6.396 c 0.024,0.948 0.334,1.674 0.928,2.174 0.539,0.446 1.236,0.67 2.092,0.67 0.947,0 1.811,-0.15 2.588,-0.453 l 0.334,1.479 c -0.908,0.396 -1.98,0.593 -3.217,0.593 -1.488,0 -2.656,-0.438 -3.506,-1.312 -0.848,-0.875 -1.273,-2.051 -1.273,-3.524 0,-1.446 0.395,-2.651 1.186,-3.612 0.828,-1.026 1.947,-1.539 3.355,-1.539 1.383,0 2.43,0.513 3.141,1.539 0.563,0.813 0.846,1.821 0.846,3.018 z m -2.033,-0.553 c 0.015,-0.633 -0.125,-1.178 -0.414,-1.639 -0.369,-0.594 -0.937,-0.89 -1.698,-0.89 -0.697,0 -1.265,0.289 -1.697,0.869 -0.355,0.461 -0.566,1.015 -0.631,1.658 z"
             id="path10" /></g><g
           fill="#ffffff"
           id="g11"
           transform="scale(4.00216,4.0011)"><path
             d="m 45.211,13.491 c -0.593,0 -1.106,-0.029 -1.533,-0.078 V 6.979 a 11.606,11.606 0 0 1 1.805,-0.136 c 2.445,0 3.571,1.203 3.571,3.164 0,2.262 -1.33,3.484 -3.843,3.484 z m 0.358,-5.823 c -0.33,0 -0.611,0.02 -0.844,0.068 v 4.891 c 0.126,0.02 0.368,0.029 0.708,0.029 1.602,0 2.514,-0.912 2.514,-2.62 0,-1.523 -0.825,-2.368 -2.378,-2.368 z m 6.994,5.872 c -1.378,0 -2.271,-1.029 -2.271,-2.426 0,-1.456 0.912,-2.494 2.349,-2.494 1.358,0 2.271,0.98 2.271,2.417 0,1.474 -0.941,2.503 -2.349,2.503 z m 0.04,-4.154 c -0.757,0 -1.242,0.708 -1.242,1.698 0,0.971 0.495,1.679 1.232,1.679 0.737,0 1.232,-0.757 1.232,-1.699 0,-0.96 -0.485,-1.678 -1.222,-1.678 z M 62.77,8.717 61.295,13.433 H 60.334 L 59.723,11.385 A 15.53,15.53 0 0 1 59.344,9.862 h -0.02 c -0.077,0.514 -0.223,1.029 -0.378,1.523 l -0.65,2.048 H 57.325 L 55.937,8.717 h 1.077 l 0.534,2.242 c 0.126,0.534 0.232,1.038 0.32,1.514 h 0.02 c 0.077,-0.397 0.203,-0.893 0.388,-1.504 l 0.67,-2.251 H 59.8 l 0.641,2.203 c 0.155,0.534 0.281,1.058 0.379,1.553 h 0.028 c 0.068,-0.485 0.175,-1 0.32,-1.553 l 0.573,-2.203 z m 5.43,4.716 h -1.048 v -2.708 c 0,-0.834 -0.32,-1.252 -0.951,-1.252 -0.621,0 -1.048,0.534 -1.048,1.155 v 2.805 h -1.048 v -3.368 c 0,-0.417 -0.01,-0.864 -0.039,-1.349 h 0.922 l 0.049,0.728 h 0.029 C 65.348,8.94 65.92,8.62 66.561,8.62 c 0.99,0 1.64,0.757 1.64,1.989 z m 2.89,0 h -1.049 v -6.88 h 1.049 z m 3.821,0.107 c -1.377,0 -2.271,-1.029 -2.271,-2.426 0,-1.456 0.912,-2.494 2.348,-2.494 1.359,0 2.271,0.98 2.271,2.417 0.001,1.474 -0.941,2.503 -2.348,2.503 z M 74.95,9.386 c -0.757,0 -1.242,0.708 -1.242,1.698 0,0.971 0.496,1.679 1.231,1.679 0.738,0 1.232,-0.757 1.232,-1.699 10e-4,-0.96 -0.483,-1.678 -1.221,-1.678 z m 6.441,4.047 -0.076,-0.543 h -0.028 c -0.32,0.437 -0.787,0.65 -1.379,0.65 -0.845,0 -1.445,-0.592 -1.445,-1.388 0,-1.164 1.009,-1.766 2.756,-1.766 v -0.087 c 0,-0.621 -0.329,-0.932 -0.979,-0.932 -0.465,0 -0.873,0.117 -1.232,0.35 L 78.795,9.028 c 0.436,-0.272 0.98,-0.408 1.619,-0.408 1.232,0 1.854,0.65 1.854,1.951 v 1.737 c 0,0.476 0.021,0.845 0.068,1.126 z m -0.144,-2.349 c -1.164,0 -1.748,0.282 -1.748,0.951 0,0.495 0.301,0.737 0.719,0.737 0.533,0 1.029,-0.407 1.029,-0.96 z m 6.11,2.349 -0.049,-0.757 h -0.029 c -0.301,0.572 -0.807,0.864 -1.514,0.864 -1.137,0 -1.979,-1 -1.979,-2.407 0,-1.475 0.873,-2.514 2.065,-2.514 0.631,0 1.078,0.213 1.33,0.641 h 0.021 V 6.553 h 1.049 v 5.609 c 0,0.456 0.011,0.883 0.039,1.271 z m -0.155,-2.775 c 0,-0.66 -0.437,-1.223 -1.104,-1.223 -0.777,0 -1.252,0.689 -1.252,1.659 0,0.951 0.493,1.602 1.231,1.602 0.659,0 1.125,-0.573 1.125,-1.252 z m 7.7,2.882 c -1.377,0 -2.27,-1.029 -2.27,-2.426 0,-1.456 0.912,-2.494 2.348,-2.494 1.359,0 2.271,0.98 2.271,2.417 10e-4,1.474 -0.94,2.503 -2.349,2.503 z m 0.039,-4.154 c -0.756,0 -1.241,0.708 -1.241,1.698 0,0.971 0.495,1.679 1.231,1.679 0.738,0 1.232,-0.757 1.232,-1.699 0.002,-0.96 -0.483,-1.678 -1.222,-1.678 z m 7.946,4.047 h -1.049 v -2.708 c 0,-0.834 -0.32,-1.252 -0.951,-1.252 -0.621,0 -1.047,0.534 -1.047,1.155 v 2.805 h -1.049 v -3.368 c 0,-0.417 -0.01,-0.864 -0.039,-1.349 h 0.922 l 0.049,0.728 h 0.029 c 0.281,-0.504 0.854,-0.825 1.494,-0.825 0.99,0 1.641,0.757 1.641,1.989 z m 7.051,-3.93 h -1.153 v 2.29 c 0,0.583 0.202,0.874 0.61,0.874 0.185,0 0.34,-0.02 0.465,-0.049 l 0.029,0.796 c -0.203,0.078 -0.475,0.117 -0.813,0.117 -0.826,0 -1.32,-0.456 -1.32,-1.65 V 9.503 h -0.688 V 8.717 h 0.688 V 7.853 l 1.029,-0.311 v 1.174 h 1.153 z m 5.548,3.93 h -1.047 v -2.688 c 0,-0.844 -0.319,-1.271 -0.951,-1.271 -0.543,0 -1.049,0.369 -1.049,1.116 v 2.843 h -1.047 v -6.88 h 1.047 v 2.833 h 0.021 c 0.33,-0.514 0.808,-0.767 1.418,-0.767 0.998,0 1.608,0.776 1.608,2.009 z m 5.684,-2.106 h -3.145 c 0.02,0.893 0.611,1.397 1.486,1.397 0.465,0 0.893,-0.078 1.271,-0.223 l 0.163,0.728 c -0.446,0.194 -0.971,0.291 -1.582,0.291 -1.475,0 -2.348,-0.932 -2.348,-2.377 0,-1.446 0.894,-2.533 2.23,-2.533 1.205,0 1.961,0.893 1.961,2.242 a 2.02,2.02 0 0 1 -0.036,0.475 z m -0.961,-0.747 c 0,-0.728 -0.367,-1.242 -1.037,-1.242 -0.602,0 -1.078,0.524 -1.146,1.242 z"
             id="path11" /></g></g></g><g
       id="g105"
       transform="translate(106.37569,-198.59161)"><path
         d="m 1108.807,153.46092 a 15.328273,15.324213 0 0 1 -15.3442,15.32422 H 591.31573 A 15.348284,15.344219 0 0 1 575.95144,153.46092 V 31.255321 a 15.368294,15.364224 0 0 1 15.36429,-15.344218 h 502.14307 a 15.344281,15.340217 0 0 1 15.3442,15.344218 z"
         id="path103"
         style="fill:#000000;fill-opacity:1;stroke-width:4.00163" /><g
         id="g103"
         transform="translate(-10.822555,-3.7394648)"><path
           id="orange"
           class="st1"
           d="m 676.74917,90.414432 c 0,0 -32.20584,-17.857018 -34.10216,-18.899994 -1.89632,-1.042976 -3.79264,-0.410869 -3.79264,1.769899 v 76.959003 c 0,1.64348 1.35903,2.3388 3.0025,1.45385 1.64348,-0.91656 34.8923,-19.34247 34.8923,-19.34247 0,0 4.51956,-2.49682 6.76354,-3.76104 3.63462,-2.02274 10.90385,-6.03662 10.90385,-6.03662 0,0 15.01253,-8.3122 17.00367,-9.41839 1.99114,-1.10618 1.80151,-2.62324 0.12642,-3.47659 -1.67508,-0.85334 -17.09849,-9.4816 -17.09849,-9.4816 z"
           style="fill:url(#orange_1_);stroke-width:0.316053" /><g
           id="blue"
           transform="matrix(0.31605342,0,0,0.31605341,638.75955,71.135174)"
           style="fill:#ffffff"><g
             id="Clip-2"><linearGradient
               id="path-3_2_"
               gradientUnits="userSpaceOnUse"
               x1="-70.261002"
               y1="571.39398"
               x2="-70.632004"
               y2="569.94299"
               gradientTransform="matrix(139,0,0,-256,9858,146183)"><stop
                 offset="0"
                 stop-color="#064aa2"
                 id="stop3" /><stop
                 offset="1"
                 stop-color="#63ffd4"
                 id="stop4-4" /></linearGradient><path
               id="path-3_1_"
               class="st2"
               d="M 139,127 5,0 C 1.9,0.7 0,3.1 0,7 v 243 c 0,3.3 1.3,5.3 3,6 z"
               style="fill:url(#path-3_2_)" /></g><defs
             id="defs4"><filter
               id="filter101"
               filterUnits="userSpaceOnUse"
               x="0"
               y="0.1"
               width="234"
               height="257"><feColorMatrix
                 values="1 0 0 0 0 0 1 0 0 0 0 0 1 0 0 0 0 0 1 0"
                 id="feColorMatrix101" /></filter></defs><mask
             maskUnits="userSpaceOnUse"
             x="0"
             y=".1"
             width="234"
             height="257"
             id="mask-4"><g
               class="st3"
               id="g4"><path
                 id="path-3"
                 class="st0"
                 d="M 139,127 5,0 C 1.9,0.7 0,3.1 0,7 v 243 c 0,3.3 1.3,5.3 3,6 z" /></g></mask><path
             id="Fill-1"
             class="st4"
             d="M 176,92 120,61 C 119.8,61.5 17.9,4.9 12,2 6,-1.8 0,0.3 0,7 v 244 c 0,5.4 4.3,7.6 9,5 5.7,-3.2 110.8,-61.5 111,-62 l 56,-31 c -0.3,0.4 47.1,-25.9 53,-29 6.8,-3.9 6.1,-8.7 1,-11 -5.5,-3.2 -54.3,-30.5 -54,-31"
             mask="url(#mask-4)" /></g><g
           id="red"
           transform="matrix(0.31605342,0,0,0.31605341,639.70234,111.43325)"
           style="fill:#ffffff"><defs
             id="defs5"><filter
               id="filter102"
               filterUnits="userSpaceOnUse"
               x="-3"
               y="-127.4"
               width="234"
               height="257"><feColorMatrix
                 values="1 0 0 0 0 0 1 0 0 0 0 0 1 0 0 0 0 0 1 0"
                 id="feColorMatrix102" /></filter></defs><mask
             maskUnits="userSpaceOnUse"
             x="-3"
             y="-127.4"
             width="234"
             height="257"
             id="mask-6"><g
               class="st5"
               id="g5"><path
                 id="path-5"
                 class="st0"
                 d="M 5.5,127.8 83,85.2 c 19.1,-10.6 34.2,-19 34.2,-19 L 173.5,35.9 136,-0.5 0,128.5 c 1.5,0.5 4.2,0.2 6.3,-0.8" /></g></mask><linearGradient
             id="Fill-7_3_"
             gradientUnits="userSpaceOnUse"
             x1="-73.347"
             y1="443.327"
             x2="-74.108002"
             y2="442.827"
             gradientTransform="matrix(233.965,0,0,-256.9642,17295.543,113843.22)"><stop
               offset="0"
               stop-color="#ff4521"
               id="stop5-8" /><stop
               offset="1"
               stop-color="#8a33db"
               id="stop6-3" /></linearGradient><path
             id="Fill-7"
             class="st6"
             d="m 117,-66.5 c -0.2,0.5 -102.1,-56.1 -108,-59 -6,-3.8 -12,-1.7 -12,5 v 244 c 0,5.4 4.3,7.6 9,5 5.7,-3.2 110.8,-61.5 111,-62 l 56,-31 c -0.3,0.4 47.1,-25.9 53,-29 6.8,-3.9 6.1,-8.7 1,-11 -5.5,-3.2 -54.3,-30.5 -54,-31 z"
             mask="url(#mask-6)"
             style="fill:url(#Fill-7_3_)" /></g><g
           id="green"
           transform="matrix(0.31605342,0,0,0.31605341,640.3335,71.135174)"
           style="fill:#ffffff"><g
             id="Clip-5"><linearGradient
               id="path-9_2_"
               gradientUnits="userSpaceOnUse"
               x1="-75.766998"
               y1="570.36401"
               x2="-75.125"
               y2="569.12201"
               gradientTransform="matrix(171.2139,0,0,-127.4293,12997.62,72640.227)"><stop
                 offset="0"
                 stop-color="#00a3b5"
                 id="stop7-9" /><stop
                 offset="1"
                 stop-color="#d6ffa1"
                 id="stop8-0" /></linearGradient><path
               id="path-9_1_"
               class="st7"
               d="M 7.1,1.1 C 4.5,-0.2 2,-0.6 -0.1,-0.1 L 134,127.1 171.1,92 115.2,61 c 0,0 -52.7,-29.2 -84.5,-46.8 z"
               style="fill:url(#path-9_2_)" /></g><defs
             id="defs8"><filter
               id="filter103"
               filterUnits="userSpaceOnUse"
               x="-5"
               y="0.1"
               width="234"
               height="257"><feColorMatrix
                 values="1 0 0 0 0 0 1 0 0 0 0 0 1 0 0 0 0 0 1 0"
                 id="feColorMatrix103" /></filter></defs><mask
             maskUnits="userSpaceOnUse"
             x="-5"
             y=".1"
             width="234"
             height="257"
             id="mask-10"><g
               class="st8"
               id="g8"><path
                 id="path-9"
                 class="st0"
                 d="M 7.1,1.1 C 4.5,-0.2 2,-0.6 -0.1,-0.1 L 134,127.1 171.1,92 115.2,61 c 0,0 -52.7,-29.2 -84.5,-46.8 z" /></g></mask><path
             id="Fill-4"
             class="st9"
             d="M 171,92 115,61 C 114.8,61.5 13,4.9 7,2 1,-1.8 -5,0.3 -5,7 v 244 c 0,5.4 4.3,7.6 9,5 5.7,-3.2 110.8,-61.5 111,-62 l 56,-31 c -0.3,0.4 47.1,-25.9 53,-29 6.8,-3.9 6.1,-8.7 1,-11 -5.5,-3.2 -54.3,-30.5 -54,-31"
             mask="url(#mask-10)" /></g><path
           id="Fill-1_1_"
           d="m 939.51598,124.83265 -3.50819,3.31856 c -0.82174,0.44247 -1.61187,0.97976 -2.40201,1.32742 -2.43361,1.10619 -4.89882,1.39064 -7.1112,1.39064 -2.33879,0 -6.00501,-0.15803 -9.73444,-2.87609 -5.18328,-3.66622 -7.45886,-10.01889 -7.45886,-15.51822 0,-11.40953 9.22876,-17.003673 16.78243,-17.003673 2.62325,0 5.34131,0.663712 7.52207,2.054347 3.66622,2.433611 4.61438,5.594146 5.12007,7.300836 l -17.19331,6.98478 -5.62575,0.44247 c 1.83311,9.35518 8.12258,14.7913 15.07575,14.7913 3.47659,0 6.03662,-1.13779 8.40702,-2.30719 0,0 0.47408,-0.25284 0.12642,0.0948 z m -10.49297,-18.77357 c 1.39063,-0.50569 2.08595,-0.94816 2.08595,-1.99114 0,-2.9709 -3.25535,-6.38428 -7.17441,-6.38428 -2.87609,0 -8.31221,2.30719 -8.31221,10.30334 0,1.26422 0.15803,2.59164 0.22124,3.91906 z"
           style="fill:#ffffff;stroke-width:0.316053" /><path
           id="Fill-2"
           d="m 903.61231,124.42178 c 0,2.84448 0.50569,3.28695 2.9077,3.50819 1.26421,0.15803 2.49682,0.22124 3.72943,0.34766 l -2.68646,1.61187 h -12.86337 c 1.67508,-2.21237 1.99113,-2.43361 1.99113,-3.88745 v -1.64348 l -0.0316,-43.615372 h -5.68896 l 5.46772,-2.654849 h 10.42976 c -2.27558,1.327424 -2.93929,2.117558 -3.22374,4.67759 l -0.0316,41.655841"
           style="fill:#ffffff;stroke-width:0.316053" /><path
           id="Fill-3"
           d="m 883.66934,99.074295 c 1.67509,1.390635 5.15167,4.329935 5.15167,9.892475 0,5.43612 -3.03411,7.99615 -6.09983,10.42976 -0.94816,0.94816 -2.05434,1.99114 -2.05434,3.60301 0,1.61187 1.10618,2.49682 1.89632,3.16053 l 2.62324,2.05435 c 3.19214,2.71806 6.09983,5.21488 6.09983,10.27174 0,6.88996 -6.63712,13.87474 -19.15284,13.87474 -10.55618,0 -15.64464,-5.05685 -15.64464,-10.49297 0,-2.65485 1.29582,-6.38428 5.62575,-8.94431 4.51956,-2.78127 10.6194,-3.16054 13.90635,-3.38178 -1.01137,-1.32742 -2.18077,-2.71806 -2.18077,-4.99364 0,-1.23261 0.37927,-1.99114 0.72693,-2.87609 -0.79014,0.0632 -1.61188,0.15803 -2.3388,0.15803 -7.7117,0 -12.07324,-5.81538 -12.07324,-11.53595 0,-3.38177 1.51706,-7.1112 4.67759,-9.82926 4.1403,-3.444982 9.10234,-4.045483 13.0214,-4.045483 h 15.01254 l -4.67759,2.654848 z m -5.12006,32.521895 c -0.6005,-0.0948 -0.94816,-0.0948 -1.67508,-0.0948 -0.66372,0 -4.64599,0.15802 -7.71171,1.201 -1.61187,0.6005 -6.32107,2.402 -6.32107,7.7117 0,5.3097 5.05686,9.13395 12.92659,9.13395 7.04799,0 10.77742,-3.44499 10.77742,-8.05937 0,-3.85585 -2.43361,-5.87859 -7.99615,-9.89247 z m 2.05435,-14.15919 c 1.67508,-1.67508 1.83311,-4.01388 1.83311,-5.3413 0,-5.2781 -3.09733,-13.463879 -9.13395,-13.463879 -1.86471,0 -3.91906,0.94816 -5.08846,2.433609 -1.23261,1.51706 -1.58027,3.50819 -1.58027,5.40452 0,4.89882 2.84449,13.0214 9.07074,13.0214 1.8015,0 3.76103,-0.88495 4.89883,-2.05435 z"
           style="fill:#ffffff;stroke-width:0.316053" /><path
           id="Fill-4_1_"
           d="m 838.28407,130.86927 c -11.59916,0 -17.79381,-9.16555 -17.79381,-17.44615 0,-9.67123 7.80652,-17.951833 18.9,-17.951833 10.71421,0 17.44615,8.501833 17.44615,17.446143 0,8.72308 -6.63712,17.95184 -18.55234,17.95184 z m 9.07074,-5.97341 c 1.76989,-2.3704 2.21237,-5.3413 2.21237,-8.21739 0,-6.54231 -3.06572,-18.99481 -12.16806,-18.99481 -2.402,0 -4.83561,0.948161 -6.60551,2.52843 -2.84448,2.59164 -3.38178,5.84699 -3.38178,9.03913 0,7.33243 3.57141,19.40567 12.45251,19.40567 2.90769,0 5.81538,-1.39063 7.49047,-3.76103 z"
           style="fill:#ffffff;stroke-width:0.316053" /><path
           id="Fill-5"
           d="m 799.4095,130.86927 c -11.59916,0 -17.79381,-9.16555 -17.79381,-17.44615 0,-9.67123 7.80652,-17.951833 18.9,-17.951833 10.71421,0 17.44615,8.501833 17.44615,17.446143 0,8.72308 -6.63712,17.95184 -18.55234,17.95184 z m 9.07073,-5.97341 c 1.7699,-2.3704 2.21238,-5.3413 2.21238,-8.21739 0,-6.54231 -3.09732,-18.99481 -12.16806,-18.99481 -2.43361,0 -4.83562,0.948161 -6.60551,2.52843 -2.87609,2.59164 -3.38178,5.84699 -3.38178,9.03913 0,7.33243 3.60301,19.40567 12.45251,19.40567 2.90769,0 5.81538,-1.39063 7.49046,-3.76103 z"
           style="fill:#ffffff;stroke-width:0.316053" /><path
           id="Fill-6"
           d="m 776.81168,128.6885 -9.82926,2.27558 c -3.98227,0.63211 -7.55368,1.20101 -11.34632,1.20101 -18.9632,-0.0316 -26.16922,-14.06438 -26.16922,-25.06304 0,-13.400663 10.24013,-25.853167 27.74949,-25.853167 3.69783,0 7.26923,0.537291 10.52458,1.453846 5.15167,1.453845 7.55368,3.25535 9.07073,4.298326 l -5.72056,5.467724 -2.40201,0.537291 1.70669,-2.749665 c -2.3388,-2.275584 -6.60552,-6.5107 -14.69649,-6.5107 -10.84063,0 -19.02641,8.280599 -19.02641,20.385445 0,12.9898 9.32357,25.22106 24.30451,25.22106 4.39314,0 6.66872,-0.88495 8.72307,-1.70669 v -11.15668 l -10.36655,0.56889 5.49933,-2.9709 h 14.57006 l -1.7699,1.7383 c -0.47408,0.41087 -0.53729,0.53729 -0.69532,1.10618 -0.0632,0.63211 -0.12642,2.62325 -0.12642,3.35017 v 8.40702"
           style="fill:#ffffff;stroke-width:0.316053" /><path
           id="Fill-7_1_"
           d="m 960.72317,125.1487 v 18.67876 h -3.69783 V 96.324631 h 3.69783 v 5.404509 c 2.402,-3.508189 6.82675,-6.257853 11.91521,-6.257853 9.16555,0 15.3602,6.984783 15.3602,18.015043 0,10.96705 -6.16304,18.07826 -15.3602,18.07826 -4.80401,0 -9.13394,-2.49683 -11.91521,-6.41589 z m 23.48277,-11.37792 c 0,-8.40702 -4.32994,-14.822906 -12.04164,-14.822906 -4.77241,0 -9.35518,3.792636 -11.34632,7.111206 v 15.36019 c 1.99114,3.31856 6.57391,7.23762 11.34632,7.23762 7.7117,0 12.04164,-6.47909 12.04164,-14.88611 z"
           style="fill:#ffffff;stroke-width:0.316053" /><path
           id="Fill-8"
           d="m 993.05543,83.145204 h 3.79264 v 47.724066 h -3.79264 z"
           style="fill:#ffffff;stroke-width:0.316053" /><path
           id="Fill-9"
           d="m 1038.093,140.5405 c 0.7902,0.34766 2.1492,0.5689 3.0026,0.5689 2.2755,0 3.8242,-0.91656 5.2464,-4.20351 l 2.6865,-6.13144 -14.5701,-34.671057 h 4.1403 l 12.4841,30.056677 12.3893,-30.056677 h 4.1719 l -17.7622,41.940287 c -1.8331,4.32993 -4.7408,6.41589 -8.723,6.41589 -1.201,0 -2.7813,-0.22124 -3.6979,-0.50569 l 0.6321,-3.41338"
           style="fill:#ffffff;stroke-width:0.316053" /><path
           id="Fill-10"
           d="m 1027.6317,130.83766 c -0.2529,-1.201 -0.4425,-2.24398 -0.5689,-3.12893 -0.1264,-0.88495 -0.1897,-1.76989 -0.1897,-2.68645 -1.2642,1.86472 -3.0657,3.44498 -5.4045,4.67759 -2.3072,1.23261 -4.5195,1.83311 -7.522,1.83311 -3.6347,0 -6.4475,-0.88495 -8.4387,-2.71806 -1.9911,-1.8015 -3.0025,-4.26672 -3.0025,-7.36404 0,-3.09733 1.4539,-5.62575 4.3616,-7.55368 2.9077,-1.92793 6.6687,-2.90769 11.3147,-2.90769 h 8.6598 v -4.29833 c 0,-2.46521 -0.8533,-4.42475 -2.5284,-5.81538 -1.6751,-1.42224 -4.0455,-2.117558 -7.1112,-2.117558 -2.8129,0 -5.0884,0.663712 -6.8267,1.927928 -1.7067,1.29582 -2.5917,2.90769 -2.5917,4.83561 h -3.7926 l -0.063,-0.18963 c -0.1265,-2.62324 1.0429,-4.89882 3.603,-6.889961 2.5284,-1.991137 5.8154,-2.970902 9.8925,-2.970902 4.0454,0 7.3324,0.979765 9.7976,2.939296 2.4652,1.927927 3.6978,4.740797 3.6978,8.375417 v 17.06688 c 0,1.23261 0.063,2.40201 0.2213,3.57141 0.158,1.16939 0.4108,2.30719 0.7269,3.41337 z m -13.2111,-2.49682 c 3.1606,0 5.4362,-0.72692 7.7434,-2.11756 2.3071,-1.39063 3.8558,-3.22374 4.6775,-5.43612 v -6.66872 h -8.723 c -3.3186,0 -6.0683,0.72692 -8.249,2.24398 -2.1808,1.48545 -3.2554,3.28695 -3.2554,5.40451 0,1.99114 0.6953,3.5714 2.086,4.77241 1.4222,1.201 3.3185,1.8015 5.7205,1.8015 z"
           style="fill:#ffffff;stroke-width:0.316053" /><path
           id="Fill-1_2_"
           d="m 728.20266,51.002572 c 0,-6.795149 5.43612,-11.188291 12.19966,-11.188291 4.51957,0 7.49047,2.022742 9.35518,4.487958 l -3.31856,1.7699 c -1.26421,-1.611873 -3.44498,-2.876086 -6.03662,-2.876086 -4.58277,0 -8.02775,3.25535 -8.02775,7.806519 0.0316,4.519564 3.44498,7.806519 8.02775,7.806519 2.3704,0 4.45636,-1.011371 5.49933,-1.959531 v -3.318561 h -6.95317 v -3.350166 h 10.99866 v 8.059362 c -2.27559,2.3704 -5.53094,3.950667 -9.54482,3.950667 -6.76354,0.03161 -12.19966,-4.393142 -12.19966,-11.18829"
           style="fill:#ffffff;stroke-width:0.316053" /><path
           id="Fill-2_1_"
           d="M 755.22523,61.906414 V 40.16194 h 16.15033 v 3.350166 h -12.01003 v 5.594145 h 11.75718 v 3.381772 h -11.75718 v 6.068225 h 12.01003 v 3.350166 h -16.15033"
           style="fill:#ffffff;stroke-width:0.316053" /><path
           id="Fill-3_1_"
           d="M 782.34261,61.906414 V 43.512106 h -7.01639 V 40.16194 h 18.10987 v 3.350166 h -7.01639 v 18.394308 h -4.07709"
           style="fill:#ffffff;stroke-width:0.316053" /><path
           id="Fill-4_2_"
           d="m 807.94294,40.16194 h 3.95067 v 21.744474 h -3.95067 z"
           style="fill:#ffffff;stroke-width:0.316053" /><path
           id="Fill-5_1_"
           d="M 823.20832,61.906414 V 43.512106 h -7.01639 V 40.16194 h 18.10986 v 3.350166 h -7.01638 v 18.394308 h -4.07709"
           style="fill:#ffffff;stroke-width:0.316053" /><path
           id="Fill-6_1_"
           d="m 847.82888,51.034177 c 0,-6.447489 4.96204,-11.188291 12.04163,-11.188291 7.01639,0 12.01003,4.740802 12.01003,11.188291 0,6.44749 -5.02524,11.188291 -12.01003,11.188291 -7.07959,0 -12.04163,-4.740801 -12.04163,-11.188291 z m 19.75334,-0.189632 c 0,-4.424748 -3.03411,-7.743308 -7.74331,-7.743308 -4.7408,0 -7.74331,3.31856 -7.74331,7.743308 0,4.393142 3.00251,7.743309 7.74331,7.743309 4.7092,0 7.74331,-3.318561 7.74331,-7.743309 z"
           style="fill:#ffffff;stroke-width:0.316053" /><path
           id="Fill-7_2_"
           d="M 892.64525,61.906414 880.54041,46.356587 v 15.549827 h -4.07709 V 40.16194 h 4.1719 l 11.85201,15.075747 V 40.16194 h 4.07709 v 21.744474 h -3.91907"
           style="fill:#ffffff;stroke-width:0.316053" /></g></g></g><style
     id="style1">.st0{fill:#fff}.st1{fill:url(#orange_1_)}.st2{fill:url(#path-3_2_)}.st3{filter:url(#Adobe_OpacityMaskFilter)}.st4{mask:url(#mask-4);fill:none}.st5{filter:url(#Adobe_OpacityMaskFilter_1_)}.st6{mask:url(#mask-6);fill:url(#Fill-7_3_)}.st7{fill:url(#path-9_2_)}.st8{filter:url(#Adobe_OpacityMaskFilter_2_)}.st9{mask:url(#mask-10);fill:none}</style></svg>
