<?xml version="1.0" encoding="UTF-8" standalone="no"?>
<!-- Uploaded to: SVG Repo, www.svgrepo.com, Generator: SVG Repo Mixer Tools -->

<svg
   fill="#000000"
   width="800px"
   height="800px"
   viewBox="0 0 512 512"
   id="_64_Fork_and_Spoon"
   data-name="64 Fork and Spoon"
   version="1.1"
   sodipodi:docname="mern-eats.svg"
   xml:space="preserve"
   inkscape:version="1.3.2 (091e20e, 2023-11-25)"
   xmlns:inkscape="http://www.inkscape.org/namespaces/inkscape"
   xmlns:sodipodi="http://sodipodi.sourceforge.net/DTD/sodipodi-0.dtd"
   xmlns="http://www.w3.org/2000/svg"
   xmlns:svg="http://www.w3.org/2000/svg"><defs
     id="defs1" /><sodipodi:namedview
     id="namedview1"
     pagecolor="#ffffff"
     bordercolor="#999999"
     borderopacity="1"
     inkscape:showpageshadow="2"
     inkscape:pageopacity="0"
     inkscape:pagecheckerboard="0"
     inkscape:deskcolor="#d1d1d1"
     inkscape:zoom="0.56316503"
     inkscape:cx="352.47217"
     inkscape:cy="447.47096"
     inkscape:window-width="1440"
     inkscape:window-height="847"
     inkscape:window-x="0"
     inkscape:window-y="25"
     inkscape:window-maximized="1"
     inkscape:current-layer="_64_Fork_and_Spoon" /><g
     id="Group_166"
     data-name="Group 166"
     style="fill:#ff7f2a"><path
       id="Path_82"
       data-name="Path 82"
       d="M224,0a31.991,31.991,0,0,0-32,32V192H160V32a32,32,0,0,0-64,0V192H64V32A32,32,0,0,0,0,32V224a31.991,31.991,0,0,0,32,32H96V480a32,32,0,0,0,64,0V256h64a31.991,31.991,0,0,0,32-32V32A31.991,31.991,0,0,0,224,0Z"
       style="fill:#ff7f2a" /><path
       id="Path_83"
       data-name="Path 83"
       d="M416,0a96,96,0,0,0-96,96c0,41.75,26.8,76.906,64,90.125V480a32,32,0,0,0,64,0V186.125C485.2,172.906,512,137.75,512,96A96,96,0,0,0,416,0Z"
       style="fill:#ff7f2a" /></g></svg>
